/* XPM */
static char * exit_xpm[] = {
"32 32 13 1",
" 	c #515559",
".	c #484D50",
"+	c #3C4145",
"@	c #444A4B",
"#	c #3C6E30",
"$	c #5E8E35",
"%	c #467934",
"&	c #528536",
"*	c #336129",
"=	c #528837",
"-	c #5B6166",
";	c #5A6166",
">	c #61686E",
" ....+@@+.....+@@+.....+@@+.... ",
"                                ",
"+++#$$++++%&&%++++*##&++++%*&+++",
"@@@#$$@@@@%%%%@@@@####@@@@%%&@@@",
"@ @%##   @%%%=   @####   @%%&@ @",
"@ @%## - @&&%% - @#=## ; @%%#@ @",
"@ @=%% - @&&%% - @#### ; @=%#@ @",
"@ @%%% - @%%$$ - @%%** ; @%%$@ @",
"@ @%## - @%%$$ - @%&&* ; @%%$@ @",
";;;;;>>>>>>>>>>>>>>>>>>>>>>;;;;;",
";...++ -+++++++ -+++++++ -++...;",
" ....+@@+.....+@@+.....+@@+.... ",
"                                ",
"+++&&%++++**%%++++&&#*++++##%+++",
"@@@#%%@@@@&*%%@@@@&&#=@@@@##%@@@",
"@ @%##   @&###   @%%%%   @&&%@ @",
"@ @&&# - @#### - @%&&% ; @&&*@ @",
"@ @&&% - @##&& - @*&&% ; @%%*@ @",
"@ @%%% - @##&& - @**%% ; @*%%@ @",
"@ @$%% - @#### - @##** ; @$$&@ @",
";;;;;>>>>>>>>>>>>>>>>>>>>>>;;;;;",
";...++ -+++++++ -+++++++ -++...;",
" ....+@@+.....+@@+.....+@@+.... ",
"                                ",
"+++#%%++++%%$$++++**&&++++&#$+++",
"@@@%##@@@@###&@@@@$$%%@@@@&##@@@",
"@ @&&#   @**%&   @$$%%   @###@ @",
"@ @&&# - @**%% - @*#%% ; @%%=@ @",
"@ @$## - @%%#= - @##%% ; @&%#@ @",
"@ ;;;;;;;;;;;;;;;;;;;;;;;;;;;; @",
"@                              @",
"@                              @"};
