/* XPM */
static char * floor_xpm[] = {
"32 32 6 1",
" 	c #3C6E30",
".	c #336129",
"+	c #467934",
"@	c #528536",
"#	c #528837",
"$	c #5E8E35",
"  ..  ++@@  ++#+  ++  $$  ++#+++",
" @@.  ++@@ @@+++ .++ @@$  +..+++",
" @@ $$++  +@@+++@@.  @@ +++.@@@+",
"    $$+@@ ++++++@@      @@++@@@+",
"  ++  +@@ +++#++++      @@++@@@+",
"@@++  ++++@@++++++ #  ..++++  + ",
"@@+#++++..@@++  ++    ..++#+  +#",
"++++++@@..++$$  @@++..# ..++$$$ ",
"++++  @@  ++$$  @@+@@.  ..++$@@ ",
"  @@  ..  @@  +++++@@ $$     @@ ",
"  @@  .#  @@  +++@@+ .$$++..    ",
" #  ++++++  ++@@$@@ #.. ++.@@   ",
"   @@+++++  ++@@$$         @@ # ",
"$$ @@+$$  ..++++  @@ ..+++  +++ ",
"$$  ++$$ @@.++++  @@ #.+++  +@@ ",
"@@++    .@@     @@++++$$++@@+@@ ",
"@@+@@   ..      @@+@@+$$++@@..+ ",
"  +@@+@@++  @@++  .@@+++  ++..+$",
"  ++++@@++  @@++  ..++++ ..++++$",
"..$$++++++    @@+#  ..   .$$@@++",
"..$$++++#+ @@ @@++  ..    $$@@++",
"  ..@@++   @@+++++    $$++      ",
"  ..@@++ #  +++++@@   $$++..  @@",
"..  ++    ++$$++ @@.@@++  ..$$@@",
".#  ++ @@ ++$$++  ..@@++ @@ $$$ ",
"  ++   @@+   @@   $$+++#+@@     ",
"  +@@   ++..+@@  .$$++++++   .. ",
"++$@@ ++@@..++++ .. ++@@++++#.. ",
"++$$  ++@@++ #++#   ++@@+@@+  @@",
" @@$#   ..+#  ++  @@+++++@@+  @@",
" @@ $$++..++++@@  @@$$++..  $$$+",
"    $$++++++++@@  ++$$++..  $$$+"};
