/* XPM */
static char * item_xpm[] = {
"32 32 15 1",
" 	c #3C6E30",
".	c #336129",
"+	c #467934",
"@	c #528536",
"#	c #528837",
"$	c #5E8E35",
"%	c #643F1B",
"&	c #CAB45B",
"*	c #50341E",
"=	c #BC8937",
"-	c #BF9C44",
";	c #A9732F",
">	c #855633",
",	c #8E5B28",
"'	c #774F27",
"  ..  ++@@  ++#+  ++  $$  ++#+++",
" @@.  ++@@ @@+++ %%+ @@$  +..+++",
" @@ $$+%%%%%@+++%&%  @@ +++.@@@+",
"    $$+*&&==%++%-&%%%%  @%%%%%@+",
"  ++  +@*--;-%%=-=>=&% %%&;;=%@+",
"@@++  +++*;;--%=;>=&&%%;-&=&&%+ ",
"@@+#++++.*&&=;%;>-;;=%&;==--% +#",
"++++++@@..*--;-;>-=&%-&;;;;%$$$ ",
"++++  @@  *;;;->;=&&%==&&=%%%%% ",
"  @@  ..  *&&==>;-&%;=-->>==&&% ",
"  @@  .#  @*-->-;;=%;;;>=;=--%  ",
" #  ++++++ *;;>-=&&%>>>>>;;;%   ",
"   @@+++++ *-->=-&%>>=&&%=>%@ # ",
"$$ @@+$$  .*->;==;>&;--%>>%%%%+ ",
"$$  ++$$ @@*=>;;>>-&;;;%-&=&&%@ ",
"@@++    .@@*=>;>&;-=--%-&=--%@@ ",
"@@+@@   .. *->>-&=;&&%;;==%%..+ ",
"  +@@+@@++*-->;-=-->>>>>>>%+..+$",
"  ++++@@++*-->;=&&>-&&;-&&%++++$",
"..$$+++++*-->=;;>-&=;-&=;;;%@@++",
"..$$++++%=-->-=>-;&&;;&&;-&;%@++",
"  .%%%%%===>-->---*******;&&;%  ",
"  .%,,;;==>--'==**@   $$+*****@@",
"..  ***;;'=='--* @@.@@++  ..$$@@",
".#  +*;;'==%--*+  ..@@++ @@ $$$ ",
"  +%%,,%;;%==*@   $$+++#+@@     ",
" %%,,,%;;%;;*@@  .$$++++++   .. ",
"+%,,%%,,**,*++++ .. ++@@++++#.. ",
"++***,,*@*,* #++#   ++@@+@@+  @@",
" @@$*,* .**#  ++  @@+++++@@+  @@",
" @@ **++..++++@@  @@$$++..  $$$+",
"    $$++++++++@@  ++$$++..  $$$+"};
