/* XPM */
static char * player_xpm[] = {
"32 32 15 1",
" 	c #3C6E30",
".	c #336129",
"+	c #467934",
"@	c #528536",
"#	c #528837",
"$	c #5E8E35",
"%	c #443626",
"&	c #CDCDCD",
"*	c #AEAEAE",
"=	c #3E2F24",
"-	c #000000",
";	c #FFFFFF",
">	c #5F5F5F",
",	c #424242",
"'	c #372B20",
"  ..  ++@@  ++#+  ++  $$  ++#+++",
" @@.  ++@@ @@+++ .++ @@$  +..+++",
" @@ $$++  +@@+++@@.  @@ +++.@@@+",
"    $$+@@ ++++++@@      @@++@@@+",
"  ++%%%%%%%%%&&&&&&***===%%%@@@+",
"@@++%%%%%%%%%&&&&&&***===%%%  + ",
"@@+#%%%%%%%%%&&&&&&***===%%%  +#",
"++++%%%%%%%%%&&&&&&%%%%%%===$$$ ",
"++++%%%%%%%%%&&&&&&%%%%%%===$@@ ",
"  @@%%%%%%%%%&&&&&&%%%%%%=== @@ ",
"  @@&&&&&&%%%%%%%%%%%%&&&&&&    ",
" #  &&&&&&%%%%%%%%%%%%&&&&&&@   ",
"   @&&&&&&%%%%%%%%%%%%&&&&&&@ # ",
"$$ @---;;;%%%%%%%%%%%%;;;---+++ ",
"$$  ---;;;%%%%%%%%%%%%;;;---+@@ ",
"@@++---;;;%%%%%%%%%%%%;;;---+@@ ",
"@@+@%%%%%%%%%%%%%%%%%%%%%%%%..+ ",
"  +@%%%%%%%%%%%%%%%%%%%%%%%%..+$",
"  ++%%%%%%%%%%%%%%%%%%%%%%%%+++$",
"..$$======;;;;;;;;;;;;======@@++",
"..$$======;;;;;;;;;;;;======@@++",
"  ..======;;;;;;;;;;;;======    ",
"  ..===;;;--->>>>>>---;;;===  @@",
"..  ===;;;--->>>>>>---;;;===$$@@",
".#  ===;;;--->>>>>>---;;;===$$$ ",
"  ++===;;;>>>,,,,,,>>>;;;'''    ",
"  +@===;;;>>>,,,,,,>>>;;;''' .. ",
"++$@===;;;>>>,,,,,,>>>;;;'''#.. ",
"++$$  ++@@++ #++#   ++@@+@@+  @@",
" @@$#   ..+#  ++  @@+++++@@+  @@",
" @@ $$++..++++@@  @@$$++..  $$$+",
"    $$++++++++@@  ++$$++..  $$$+"};
