/* XPM */
static char * deepslate_bricks_xpm[] = {
"32 32 7 1",
" 	c #4C5252",
".	c #525858",
"+	c #333434",
"@	c #4B4D4D",
"#	c #393B3B",
"$	c #464B4B",
"%	c #414343",
"   .. ......... . .........+    ",
"@@@@@@@@@@@@@@@@@@@@@@@   .+   @",
"@@@@@@@@@@@@@@@@@@@@@@@@@  #  @@",
"@@@@@@@@@@@@@@@@@@@@@@@@@@ # @@@",
"@@@@@@@##@@@@@@@@@  @@@@@@ # @@@",
"@@@@@@@@@@@@@@@@@ @#@@@@@@ # @@@",
"@@@@@@@@@@@@@@@@@@@@@@@@@@ # @@@",
"@@@@@@@@@@@@@@@@@@@@@@@@@@ +@@@@",
"@@@@@@@@@@@@@@@@@@@@@@@@@@ +#@@@",
"@@@@@@###@#@@@@@@@@@@@@@@@ +##@@",
"##############+++++######++++++#",
"$$$$..$.......$+$$$$$$$.$......$",
"%%%%%%%%%%$$$$.+$$$$%%%%%%%%%%%%",
"%%%%%%%%%%%%$$.#$$%%%%$$%%%%%%%%",
"%%%%%%%%%%%%%$.#$%%%%$%%%%%%%%%%",
"%%%%%%%%%%%%%$.+$%%%%%%%%%%%%%%%",
"%%%%%%%%%%%%%%.+$%%%%%%%%%%%%%%%",
"%%%%%%%%%%%%%%$+$%%%%%%%%%%%%%%%",
"%%%%%%%%%%%%%%.+$%%%%%%%%%%%%%%%",
"%%%%%%%%%%%%%%$+#%%%%%%%%%%%%%%%",
"%%%%%##%%%%%%%$+##%%%%%%%%%%%%%%",
"###+++++####++++++++########++++",
".... +      . .... ..      .. ..",
"@@  .#    @@@@@@@@@@@@@@@@@@@@@@",
"@@@ .#  @@@@@@@@@@@@@@@@@@@@@@@@",
"@@@@.# @@@@@@@@@@@@@@@@@@@@@@@@@",
"@@@@ # @@@@@@@@@@@@@@@@@ #@@@@@@",
"@@@@ + @@@@@@@@@@@@@@@@@@@@@@@@@",
"@@@@ + @@@@@@@@@@@@@@@@@@@@@@@@@",
"@@@@ + @@@@@@@@@@@@@@@@@@@@@@@@@",
"@@@@ +# @@@@@@@@@##@@@@@@@@@@@@@",
"#####+++####+##+++++############"};
